<?xml version="1.0" encoding="UTF-8"?>
<svg xmlns="http://www.w3.org/2000/svg" version="1.1" viewBox="0 0 64 64">
  <!-- Generator: Adobe Illustrator 28.7.1, SVG Export Plug-In . SVG Version: 1.2.0 Build 142)  -->
  <g>
    <g id="Outline">
      <g>
        <path d="M56.83002,43.45001l-6-9c-.17999-.28003-.5-.45001-.83002-.45001h-8c0-1.65002-1.34998-3-3-3h-2V14c0-.10999-.02002-.21002-.04999-.32001l-1.54999-4.63c-.40002-1.22998-1.55005-2.04999-2.84003-2.04999H11.44c-1.28998,0-2.44.82001-2.84003,2.04999l-1.54999,4.63c-.02997.10999-.04999.21002-.04999.32001v22c0,1.64996,1.34998,3,3,3h8v12c0,1.64996,1.34998,3,3,3h2.14001c.45001,1.71997,2,3,3.85999,3s3.40997-1.28003,3.85999-3h13.28003c.45001,1.71997,2,3,3.85999,3s3.40997-1.28003,3.85999-3h3.14001c1.09998,0,2-.90002,2-2v-8c0-.20001-.06-.39001-.16998-.54999ZM32.56,9c.42999,0,.81.26996.95001.67999l1.09998,3.32001h-6.89001l-1.32996-4h6.16998ZM19.71997,9h4.56006l1.32996,4h-7.21997l1.32996-4ZM18,15h8v6.22998l-3.48999-2.08997c-.15002-.09003-.33002-.14001-.51001-.14001s-.35999.04999-.51001.14001l-3.48999,2.08997v-6.22998ZM10.48999,9.67999c.14001-.41003.52002-.67999.95001-.67999h6.16998l-1.32996,4h-6.89001l1.09998-3.32001ZM10,37c-.54999,0-1-.45001-1-1V15h7v8c0,.35999.19.69.51001.87.31.17999.70001.16998,1-.01001l4.48999-2.69s4.48895,2.68939,4.48999,2.69c.30676.18378.68982.18445,1,.01001.32001-.17999.51001-.51001.51001-.87v-8h7v21c0,.54999-.45001,1-1,1H10ZM27,55c-1.09998,0-2-.90002-2-2,0-1.10004.90002-2,2-2s2,.89996,2,2c0,1.09998-.90002,2-2,2ZM40,52h-9.14001c-.45001-1.72003-2-3-3.85999-3s-3.40997,1.27997-3.85999,3h-2.14001c-.54999,0-1-.45001-1-1v-12h14c1.65002,0,3-1.35004,3-3v-3h2c.54999,0,1,.45001,1,1v18ZM48,55c-1.09998,0-2-.90002-2-2,0-1.10004.90002-2,2-2s2,.89996,2,2c0,1.09998-.90002,2-2,2ZM55,47h-2c-.54999,0-1,.45001-1,1s.45001,1,1,1h2v3h-3.14001c-.45001-1.72003-2-3-3.85999-3s-3.40997,1.27997-3.85999,3h-2.14001v-16h7.46002l5.53998,8.29999v2.70001Z"/>
        <path d="M48,38h-3c-.55225,0-1,.44775-1,1v5c0,.55225.44775,1,1,1h6c.36035,0,.69287-.19385.87012-.50732.17773-.31348.17285-.69824-.0127-1.00732l-3-5c-.18066-.30127-.50635-.48535-.85742-.48535ZM46,43v-3h1.43359l1.80029,3h-3.23389Z"/>
        <path d="M32,33h-6c-.55225,0-1,.44775-1,1s.44775,1,1,1h6c.55225,0,1-.44775,1-1s-.44775-1-1-1Z"/>
        <path d="M32,29h-6c-.55225,0-1,.44775-1,1s.44775,1,1,1h6c.55225,0,1-.44775,1-1s-.44775-1-1-1Z"/>
      </g>
    </g>
  </g>
</svg>