<?xml version="1.0" encoding="UTF-8"?>
<svg xmlns="http://www.w3.org/2000/svg" version="1.1" viewBox="0 0 64 64">
  <!-- Generator: Adobe Illustrator 28.7.1, SVG Export Plug-In . SVG Version: 1.2.0 Build 142)  -->
  <g>
    <g id="Outline">
      <g>
        <path d="M57,39.5v-21c0-.38-.21002-.72003-.54999-.89001l-21-10.5c-.28003-.15002-.62-.15002-.90002,0l-21,10.5c-.33997.16998-.54999.51001-.54999.89001v21c0,.38.21002.71997.54999.89001,0,0,21,10.5,21.00002,10.50001.28529.14252.60492.14241.90001,0l3.62-1.81006c.53998,4.46002,4.33002,7.92004,8.92999,7.92004,4.96002,0,9-4.04004,9-9,0-2.54999-1.07001-4.85004-2.78003-6.48999l2.23004-1.12c.33997-.16003.54999-.51001.54999-.89001ZM45.26001,14.25l-18.71002,9.35999c-.01001,0-.02997.02002-.03998.03003l-1.77002-.89001,18.76001-9.38,1.76001.88ZM26,25.62v3.76001l-2-1v-3.76001l2,1ZM35,9.12l6.26001,3.13-18.71002,9.35999c-.01001,0-.02997.02002-.03998.03003l-6.27002-3.14001,18.76001-9.38ZM34,48.38l-19-9.5v-18.76001l7,3.5v5.38c0,.38.21002.71997.54999.89001l4,2c.29585.14793.68081.14701.98004-.04004.28998-.17999.46997-.5.46997-.84998v-4.38l6,3v18.76001ZM35,27.88l-6.26001-3.13,18.76001-9.38,6.26001,3.13-18.76001,9.38ZM55,48c0,3.85999-3.14001,7-7,7s-7-3.14001-7-7,3.14001-7,7-7,7,3.14001,7,7ZM55,38.88l-2.58002,1.28998c-1.31-.73999-2.81-1.16998-4.41998-1.16998-4.57001,0-8.34003,3.41998-8.91998,7.83997l-3.08002,1.54004v-18.76001l19-9.5v18.76001Z"/>
        <path d="M11,9h14c.55273,0,1-.44727,1-1s-.44727-1-1-1h-14c-.55273,0-1,.44727-1,1s.44727,1,1,1Z"/>
        <path d="M8,13h7c.55273,0,1-.44727,1-1s-.44727-1-1-1h-7c-.55273,0-1,.44727-1,1s.44727,1,1,1Z"/>
        <path d="M25,55h-14c-.55273,0-1,.44727-1,1s.44727,1,1,1h14c.55273,0,1-.44727,1-1s-.44727-1-1-1Z"/>
        <path d="M27,51H8c-.55273,0-1,.44727-1,1s.44727,1,1,1h19c.55273,0,1-.44727,1-1s-.44727-1-1-1Z"/>
        <path d="M10,48c0,.55273.44727,1,1,1h9c.55273,0,1-.44727,1-1s-.44727-1-1-1h-9c-.55273,0-1,.44727-1,1Z"/>
        <path d="M8,45h7c.55273,0,1-.44727,1-1s-.44727-1-1-1h-7c-.55273,0-1,.44727-1,1s.44727,1,1,1Z"/>
        <path d="M51.29297,44.79297l-4.29297,4.29297-2.29297-2.29297c-.39062-.39062-1.02344-.39062-1.41406,0s-.39062,1.02344,0,1.41406l3,3c.19531.19531.45117.29297.70703.29297s.51172-.09766.70703-.29297l5-5c.39062-.39062.39062-1.02344,0-1.41406s-1.02344-.39062-1.41406,0Z"/>
      </g>
    </g>
  </g>
</svg>